<mxfile host="app.diagrams.net" agent="Mozilla/5.0 (Windows NT 10.0; Win64; x64) AppleWebKit/537.36 (KHTML, like Gecko) Chrome/131.0.0.0 Safari/537.36 Edg/131.0.0.0" version="25.0.3">
  <diagram name="Страница — 1" id="A_ea5z8T6nXJXxGebd3b">
    <mxGraphModel dx="4034" dy="2119" grid="1" gridSize="10" guides="1" tooltips="1" connect="1" arrows="1" fold="1" page="1" pageScale="1" pageWidth="827" pageHeight="1169" math="0" shadow="0">
      <root>
        <mxCell id="0" />
        <mxCell id="1" parent="0" />
        <mxCell id="W7bcFDazM616MEcdgTbA-3" value="Клиент" style="html=1;whiteSpace=wrap;dashed=1;strokeWidth=1;perimeterSpacing=3;dashPattern=8 8;labelPosition=center;verticalLabelPosition=top;align=center;verticalAlign=bottom;fontSize=15;" vertex="1" parent="1">
          <mxGeometry x="-30" y="200" width="390" height="1560" as="geometry" />
        </mxCell>
        <mxCell id="W7bcFDazM616MEcdgTbA-28" style="edgeStyle=orthogonalEdgeStyle;rounded=0;orthogonalLoop=1;jettySize=auto;html=1;exitX=0.5;exitY=1;exitDx=0;exitDy=0;entryX=0.5;entryY=0;entryDx=0;entryDy=0;fontSize=15;" edge="1" parent="1" source="W7bcFDazM616MEcdgTbA-1" target="W7bcFDazM616MEcdgTbA-7">
          <mxGeometry relative="1" as="geometry" />
        </mxCell>
        <mxCell id="W7bcFDazM616MEcdgTbA-1" value="Делает заявку на обслуживание" style="ellipse;whiteSpace=wrap;html=1;fontSize=15;" vertex="1" parent="1">
          <mxGeometry x="115" y="360" width="140" height="70" as="geometry" />
        </mxCell>
        <mxCell id="W7bcFDazM616MEcdgTbA-4" value="Администратор" style="html=1;whiteSpace=wrap;dashed=1;strokeWidth=1;perimeterSpacing=3;dashPattern=8 8;labelPosition=center;verticalLabelPosition=top;align=center;verticalAlign=bottom;fontSize=15;" vertex="1" parent="1">
          <mxGeometry x="380" y="200" width="320" height="1560" as="geometry" />
        </mxCell>
        <mxCell id="W7bcFDazM616MEcdgTbA-6" value="Оператор принимает заявку" style="text;html=1;align=center;verticalAlign=middle;whiteSpace=wrap;rounded=0;fontSize=15;" vertex="1" parent="1">
          <mxGeometry x="155" y="460" width="60" height="30" as="geometry" />
        </mxCell>
        <mxCell id="W7bcFDazM616MEcdgTbA-29" style="edgeStyle=orthogonalEdgeStyle;rounded=0;orthogonalLoop=1;jettySize=auto;html=1;exitX=0.5;exitY=1;exitDx=0;exitDy=0;entryX=0.5;entryY=0;entryDx=0;entryDy=0;fontSize=15;" edge="1" parent="1" source="W7bcFDazM616MEcdgTbA-7" target="W7bcFDazM616MEcdgTbA-13">
          <mxGeometry relative="1" as="geometry">
            <Array as="points">
              <mxPoint x="185" y="640" />
              <mxPoint x="290" y="640" />
            </Array>
          </mxGeometry>
        </mxCell>
        <mxCell id="W7bcFDazM616MEcdgTbA-7" value="Проверка клиента" style="ellipse;whiteSpace=wrap;html=1;fontSize=15;" vertex="1" parent="1">
          <mxGeometry x="125" y="520" width="120" height="80" as="geometry" />
        </mxCell>
        <mxCell id="W7bcFDazM616MEcdgTbA-9" value="Клиент не найден" style="text;html=1;align=center;verticalAlign=middle;whiteSpace=wrap;rounded=0;fontSize=15;" vertex="1" parent="1">
          <mxGeometry x="40" y="670" width="60" height="30" as="geometry" />
        </mxCell>
        <mxCell id="W7bcFDazM616MEcdgTbA-10" value="Клиент найден" style="text;html=1;align=center;verticalAlign=middle;whiteSpace=wrap;rounded=0;fontSize=15;" vertex="1" parent="1">
          <mxGeometry x="260" y="670" width="60" height="30" as="geometry" />
        </mxCell>
        <mxCell id="W7bcFDazM616MEcdgTbA-30" style="edgeStyle=orthogonalEdgeStyle;rounded=0;orthogonalLoop=1;jettySize=auto;html=1;exitX=0;exitY=0.5;exitDx=0;exitDy=0;entryX=0.5;entryY=0;entryDx=0;entryDy=0;fontSize=15;" edge="1" parent="1" source="W7bcFDazM616MEcdgTbA-11" target="W7bcFDazM616MEcdgTbA-12">
          <mxGeometry relative="1" as="geometry" />
        </mxCell>
        <mxCell id="W7bcFDazM616MEcdgTbA-11" value="" style="rhombus;whiteSpace=wrap;html=1;fontSize=15;" vertex="1" parent="1">
          <mxGeometry x="170" y="620" width="30" height="30" as="geometry" />
        </mxCell>
        <mxCell id="W7bcFDazM616MEcdgTbA-32" style="edgeStyle=orthogonalEdgeStyle;rounded=0;orthogonalLoop=1;jettySize=auto;html=1;exitX=0.5;exitY=1;exitDx=0;exitDy=0;entryX=0;entryY=0.5;entryDx=0;entryDy=0;fontSize=15;" edge="1" parent="1" source="W7bcFDazM616MEcdgTbA-12" target="W7bcFDazM616MEcdgTbA-14">
          <mxGeometry relative="1" as="geometry" />
        </mxCell>
        <mxCell id="W7bcFDazM616MEcdgTbA-12" value="Регистрация клиента" style="ellipse;whiteSpace=wrap;html=1;fontSize=15;" vertex="1" parent="1">
          <mxGeometry x="10" y="740" width="120" height="80" as="geometry" />
        </mxCell>
        <mxCell id="W7bcFDazM616MEcdgTbA-37" style="edgeStyle=orthogonalEdgeStyle;rounded=0;orthogonalLoop=1;jettySize=auto;html=1;exitX=0.5;exitY=1;exitDx=0;exitDy=0;entryX=0.5;entryY=0;entryDx=0;entryDy=0;fontSize=15;" edge="1" parent="1" source="W7bcFDazM616MEcdgTbA-13" target="W7bcFDazM616MEcdgTbA-14">
          <mxGeometry relative="1" as="geometry" />
        </mxCell>
        <mxCell id="W7bcFDazM616MEcdgTbA-13" value="Существующий клиент" style="ellipse;whiteSpace=wrap;html=1;fontSize=15;" vertex="1" parent="1">
          <mxGeometry x="230" y="740" width="120" height="80" as="geometry" />
        </mxCell>
        <mxCell id="W7bcFDazM616MEcdgTbA-21" style="edgeStyle=orthogonalEdgeStyle;rounded=0;orthogonalLoop=1;jettySize=auto;html=1;exitX=1;exitY=0.5;exitDx=0;exitDy=0;entryX=0;entryY=0.5;entryDx=0;entryDy=0;fontSize=15;" edge="1" parent="1" source="W7bcFDazM616MEcdgTbA-14" target="W7bcFDazM616MEcdgTbA-17">
          <mxGeometry relative="1" as="geometry" />
        </mxCell>
        <mxCell id="W7bcFDazM616MEcdgTbA-14" value="Создание заявки" style="ellipse;whiteSpace=wrap;html=1;fontSize=15;" vertex="1" parent="1">
          <mxGeometry x="125" y="890" width="120" height="80" as="geometry" />
        </mxCell>
        <mxCell id="W7bcFDazM616MEcdgTbA-16" value="Клиент не найден" style="text;html=1;align=center;verticalAlign=middle;whiteSpace=wrap;rounded=0;fontSize=15;" vertex="1" parent="1">
          <mxGeometry x="40" y="850" width="60" height="30" as="geometry" />
        </mxCell>
        <mxCell id="W7bcFDazM616MEcdgTbA-17" value="Проверка доступности инженера (мастера)" style="ellipse;whiteSpace=wrap;html=1;fontSize=15;" vertex="1" parent="1">
          <mxGeometry x="460" y="890" width="160" height="80" as="geometry" />
        </mxCell>
        <mxCell id="W7bcFDazM616MEcdgTbA-18" value="Администратор проверяет" style="text;html=1;align=center;verticalAlign=middle;whiteSpace=wrap;rounded=0;fontSize=15;" vertex="1" parent="1">
          <mxGeometry x="330" y="915" width="60" height="30" as="geometry" />
        </mxCell>
        <mxCell id="W7bcFDazM616MEcdgTbA-22" value="Нет свободных" style="text;html=1;align=center;verticalAlign=middle;whiteSpace=wrap;rounded=0;fontSize=15;" vertex="1" parent="1">
          <mxGeometry x="595" y="1020" width="60" height="30" as="geometry" />
        </mxCell>
        <mxCell id="W7bcFDazM616MEcdgTbA-23" value="Есть свободные" style="text;html=1;align=center;verticalAlign=middle;whiteSpace=wrap;rounded=0;fontSize=15;" vertex="1" parent="1">
          <mxGeometry x="400" y="1020" width="60" height="30" as="geometry" />
        </mxCell>
        <mxCell id="W7bcFDazM616MEcdgTbA-24" value="Ожидание инженера" style="ellipse;whiteSpace=wrap;html=1;fontSize=15;" vertex="1" parent="1">
          <mxGeometry x="560" y="1100" width="130" height="50" as="geometry" />
        </mxCell>
        <mxCell id="W7bcFDazM616MEcdgTbA-25" value="" style="rhombus;whiteSpace=wrap;html=1;fontSize=15;" vertex="1" parent="1">
          <mxGeometry x="522.5" y="985" width="35" height="35" as="geometry" />
        </mxCell>
        <mxCell id="W7bcFDazM616MEcdgTbA-26" value="Инженер освободился" style="text;html=1;align=center;verticalAlign=middle;whiteSpace=wrap;rounded=0;fontSize=15;" vertex="1" parent="1">
          <mxGeometry x="595" y="1160" width="60" height="30" as="geometry" />
        </mxCell>
        <mxCell id="W7bcFDazM616MEcdgTbA-15" value="Клиент найден" style="text;html=1;align=center;verticalAlign=middle;whiteSpace=wrap;rounded=0;fontSize=15;" vertex="1" parent="1">
          <mxGeometry x="230" y="840" width="60" height="30" as="geometry" />
        </mxCell>
        <mxCell id="W7bcFDazM616MEcdgTbA-38" value="Назначение инженера" style="ellipse;whiteSpace=wrap;html=1;fontSize=15;" vertex="1" parent="1">
          <mxGeometry x="475" y="1190" width="120" height="80" as="geometry" />
        </mxCell>
        <mxCell id="W7bcFDazM616MEcdgTbA-50" style="edgeStyle=orthogonalEdgeStyle;rounded=0;orthogonalLoop=1;jettySize=auto;html=1;exitX=0.5;exitY=1;exitDx=0;exitDy=0;entryX=0.5;entryY=0;entryDx=0;entryDy=0;fontSize=15;" edge="1" parent="1" source="W7bcFDazM616MEcdgTbA-39" target="W7bcFDazM616MEcdgTbA-43">
          <mxGeometry relative="1" as="geometry" />
        </mxCell>
        <mxCell id="W7bcFDazM616MEcdgTbA-39" value="Формирование сметы" style="ellipse;whiteSpace=wrap;html=1;fontSize=15;" vertex="1" parent="1">
          <mxGeometry x="475" y="1330" width="120" height="80" as="geometry" />
        </mxCell>
        <mxCell id="W7bcFDazM616MEcdgTbA-40" value="Инженер оценивает" style="text;html=1;align=center;verticalAlign=middle;whiteSpace=wrap;rounded=0;fontSize=15;" vertex="1" parent="1">
          <mxGeometry x="505" y="1290" width="60" height="30" as="geometry" />
        </mxCell>
        <mxCell id="W7bcFDazM616MEcdgTbA-51" style="edgeStyle=orthogonalEdgeStyle;rounded=0;orthogonalLoop=1;jettySize=auto;html=1;exitX=1;exitY=0.5;exitDx=0;exitDy=0;entryX=0.5;entryY=0;entryDx=0;entryDy=0;fontSize=15;" edge="1" parent="1" source="W7bcFDazM616MEcdgTbA-43" target="W7bcFDazM616MEcdgTbA-46">
          <mxGeometry relative="1" as="geometry" />
        </mxCell>
        <mxCell id="W7bcFDazM616MEcdgTbA-53" style="edgeStyle=orthogonalEdgeStyle;rounded=0;orthogonalLoop=1;jettySize=auto;html=1;exitX=0;exitY=0.5;exitDx=0;exitDy=0;entryX=0.5;entryY=0;entryDx=0;entryDy=0;fontSize=15;" edge="1" parent="1" source="W7bcFDazM616MEcdgTbA-43" target="W7bcFDazM616MEcdgTbA-52">
          <mxGeometry relative="1" as="geometry" />
        </mxCell>
        <mxCell id="W7bcFDazM616MEcdgTbA-43" value="" style="rhombus;whiteSpace=wrap;html=1;fontSize=15;" vertex="1" parent="1">
          <mxGeometry x="515" y="1430" width="40" height="40" as="geometry" />
        </mxCell>
        <mxCell id="W7bcFDazM616MEcdgTbA-44" value="Клиент согласен" style="text;html=1;align=center;verticalAlign=middle;whiteSpace=wrap;rounded=0;fontSize=15;" vertex="1" parent="1">
          <mxGeometry x="414" y="1490" width="60" height="30" as="geometry" />
        </mxCell>
        <mxCell id="W7bcFDazM616MEcdgTbA-45" value="Клиент не согласен" style="text;html=1;align=center;verticalAlign=middle;whiteSpace=wrap;rounded=0;fontSize=15;" vertex="1" parent="1">
          <mxGeometry x="595" y="1490" width="60" height="30" as="geometry" />
        </mxCell>
        <mxCell id="W7bcFDazM616MEcdgTbA-57" style="edgeStyle=orthogonalEdgeStyle;rounded=0;orthogonalLoop=1;jettySize=auto;html=1;exitX=0.5;exitY=1;exitDx=0;exitDy=0;entryX=0.5;entryY=1;entryDx=0;entryDy=0;fontSize=15;" edge="1" parent="1" source="W7bcFDazM616MEcdgTbA-46" target="W7bcFDazM616MEcdgTbA-47">
          <mxGeometry relative="1" as="geometry" />
        </mxCell>
        <mxCell id="W7bcFDazM616MEcdgTbA-46" value="Отмена заявки" style="ellipse;whiteSpace=wrap;html=1;fontSize=15;" vertex="1" parent="1">
          <mxGeometry x="565" y="1560" width="115" height="50" as="geometry" />
        </mxCell>
        <mxCell id="W7bcFDazM616MEcdgTbA-47" value="" style="ellipse;html=1;shape=endState;fillColor=#000000;strokeColor=#ff0000;fontSize=15;" vertex="1" parent="1">
          <mxGeometry x="165" y="1670" width="30" height="30" as="geometry" />
        </mxCell>
        <mxCell id="W7bcFDazM616MEcdgTbA-56" style="edgeStyle=orthogonalEdgeStyle;rounded=0;orthogonalLoop=1;jettySize=auto;html=1;exitX=0;exitY=0.5;exitDx=0;exitDy=0;entryX=1;entryY=0.5;entryDx=0;entryDy=0;fontSize=15;" edge="1" parent="1" source="W7bcFDazM616MEcdgTbA-52" target="W7bcFDazM616MEcdgTbA-47">
          <mxGeometry relative="1" as="geometry" />
        </mxCell>
        <mxCell id="W7bcFDazM616MEcdgTbA-52" value="Выполнение работ" style="ellipse;whiteSpace=wrap;html=1;fontSize=15;" vertex="1" parent="1">
          <mxGeometry x="380" y="1560" width="120" height="50" as="geometry" />
        </mxCell>
        <mxCell id="W7bcFDazM616MEcdgTbA-58" value="Pool" style="swimlane;html=1;childLayout=stackLayout;resizeParent=1;resizeParentMax=0;startSize=20;whiteSpace=wrap;" vertex="1" parent="1">
          <mxGeometry x="-1200" y="-100" width="480" height="1040" as="geometry" />
        </mxCell>
        <mxCell id="W7bcFDazM616MEcdgTbA-59" value="Клиент" style="swimlane;html=1;startSize=20;" vertex="1" parent="W7bcFDazM616MEcdgTbA-58">
          <mxGeometry y="20" width="120" height="1020" as="geometry" />
        </mxCell>
        <mxCell id="W7bcFDazM616MEcdgTbA-2" value="&lt;font face=&quot;Times New Roman&quot;&gt;Клиент&lt;/font&gt;" style="strokeWidth=2;html=1;shape=mxgraph.flowchart.start_2;whiteSpace=wrap;labelPosition=center;verticalLabelPosition=top;align=center;verticalAlign=bottom;fontSize=15;" vertex="1" parent="W7bcFDazM616MEcdgTbA-59">
          <mxGeometry x="40" y="50" width="40" height="40" as="geometry" />
        </mxCell>
        <mxCell id="W7bcFDazM616MEcdgTbA-60" value="Оператор" style="swimlane;html=1;startSize=20;" vertex="1" parent="W7bcFDazM616MEcdgTbA-58">
          <mxGeometry x="120" y="20" width="120" height="1020" as="geometry" />
        </mxCell>
        <mxCell id="W7bcFDazM616MEcdgTbA-61" value="Инженер" style="swimlane;html=1;startSize=20;" vertex="1" parent="W7bcFDazM616MEcdgTbA-58">
          <mxGeometry x="240" y="20" width="120" height="1020" as="geometry" />
        </mxCell>
        <mxCell id="W7bcFDazM616MEcdgTbA-62" value="Администратор" style="swimlane;html=1;startSize=20;" vertex="1" parent="W7bcFDazM616MEcdgTbA-58">
          <mxGeometry x="360" y="20" width="120" height="1020" as="geometry" />
        </mxCell>
      </root>
    </mxGraphModel>
  </diagram>
</mxfile>
